<svg width="24" height="25" viewBox="0 0 24 25" fill="none" xmlns="http://www.w3.org/2000/svg">
<path d="M15 23.6709H9C3.57 23.6709 1.25 21.3509 1.25 15.9209V9.9209C1.25 4.4909 3.57 2.1709 9 2.1709H15C20.43 2.1709 22.75 4.4909 22.75 9.9209V15.9209C22.75 21.3509 20.43 23.6709 15 23.6709ZM9 3.6709C4.39 3.6709 2.75 5.3109 2.75 9.9209V15.9209C2.75 20.5309 4.39 22.1709 9 22.1709H15C19.61 22.1709 21.25 20.5309 21.25 15.9209V9.9209C21.25 5.3109 19.61 3.6709 15 3.6709H9Z" fill="#4A9C99"/>
<path d="M10.74 17.2011C10.55 17.2011 10.36 17.1311 10.21 16.9811C9.91999 16.6911 9.91999 16.2111 10.21 15.9211L13.21 12.9211L10.21 9.92105C9.91999 9.63105 9.91999 9.15105 10.21 8.86105C10.5 8.57105 10.98 8.57105 11.27 8.86105L14.8 12.3911C15.09 12.6811 15.09 13.1611 14.8 13.4511L11.27 16.9811C11.12 17.1311 10.93 17.2011 10.74 17.2011Z" fill="#4A9C99"/>
</svg>
