<svg width="24" height="25" viewBox="0 0 24 25" fill="none" xmlns="http://www.w3.org/2000/svg">
<g clip-path="url(#clip0_1_1035)">
<path d="M24 12.5625C24 18.5515 19.606 23.5165 13.87 24.4175V16.0545H16.659L17.19 12.5945H13.87V10.3495C13.87 9.4025 14.334 8.4805 15.82 8.4805H17.329V5.5345C17.329 5.5345 15.959 5.3005 14.65 5.3005C11.916 5.3005 10.13 6.9575 10.13 9.9565V12.5935H7.091V16.0535H10.13V24.4165C4.395 23.5145 0 18.5505 0 12.5625C0 5.9355 5.373 0.5625 12 0.5625C18.627 0.5625 24 5.9345 24 12.5625Z" fill="white"/>
</g>
<defs>
<clipPath id="clip0_1_1035">
<rect width="24" height="24" fill="white" transform="translate(0 0.489258)"/>
</clipPath>
</defs>
</svg>
