<svg width="36" height="37" viewBox="0 0 36 37" fill="none" xmlns="http://www.w3.org/2000/svg">
<rect x="1" y="1.5896" width="34" height="34" rx="17" fill="white"/>
<rect x="1" y="1.5896" width="34" height="34" rx="17" stroke="white" stroke-width="2" stroke-linecap="round" stroke-linejoin="round" stroke-dasharray="20 10"/>
<path d="M30 18.5756C30 16.6456 28.43 15.0756 26.5 15.0756C26.494 15.0756 26.489 15.0776 26.484 15.0776L24.933 12.5966C25.589 11.9596 26 11.0736 26 10.0896C26 8.1596 24.43 6.5896 22.5 6.5896C20.92 6.5896 19.597 7.6486 19.163 9.0896H16.837C16.403 7.6486 15.08 6.5896 13.5 6.5896C11.57 6.5896 10 8.1596 10 10.0896C10 11.0736 10.411 11.9596 11.067 12.5966L9.516 15.0776C9.51 15.0776 9.505 15.0756 9.5 15.0756C7.57 15.0756 6 16.6456 6 18.5756C6 20.5056 7.57 22.0756 9.5 22.0756L11.067 24.5826C10.411 25.2196 10 26.1056 10 27.0896C10 29.0196 11.57 30.5896 13.5 30.5896C15.08 30.5896 16.403 29.5306 16.837 28.0896H19.163C19.597 29.5306 20.92 30.5896 22.5 30.5896C24.43 30.5896 26 29.0196 26 27.0896C26 26.1056 25.589 25.2196 24.933 24.5826L26.5 22.0756C28.43 22.0756 30 20.5056 30 18.5756ZM28 18.5756C28 19.4026 27.327 20.0756 26.5 20.0756C25.673 20.0756 25 19.4026 25 18.5756C25 17.7486 25.673 17.0756 26.5 17.0756C27.327 17.0756 28 17.7486 28 18.5756ZM22.5 8.5896C23.327 8.5896 24 9.2626 24 10.0896C24 10.9166 23.327 11.5896 22.5 11.5896C21.673 11.5896 21 10.9166 21 10.0896C21 9.2626 21.673 8.5896 22.5 8.5896ZM13.5 8.5896C14.327 8.5896 15 9.2626 15 10.0896C15 10.9166 14.327 11.5896 13.5 11.5896C12.673 11.5896 12 10.9166 12 10.0896C12 9.2626 12.673 8.5896 13.5 8.5896ZM8 18.5756C8 17.7486 8.673 17.0756 9.5 17.0756C10.327 17.0756 11 17.7486 11 18.5756C11 19.4026 10.327 20.0756 9.5 20.0756C8.673 20.0756 8 19.4026 8 18.5756ZM13.5 28.5896C12.673 28.5896 12 27.9166 12 27.0896C12 26.2626 12.673 25.5896 13.5 25.5896C14.327 25.5896 15 26.2626 15 27.0896C15 27.9166 14.327 28.5896 13.5 28.5896ZM22.5 28.5896C21.673 28.5896 21 27.9166 21 27.0896C21 26.2626 21.673 25.5896 22.5 25.5896C23.327 25.5896 24 26.2626 24 27.0896C24 27.9166 23.327 28.5896 22.5 28.5896ZM22.5 23.5896C20.92 23.5896 19.597 24.6486 19.163 26.0896H16.837C16.403 24.6486 15.08 23.5896 13.5 23.5896C13.276 23.5896 13.058 23.6156 12.845 23.6556L11.474 21.4616C12.394 20.8306 13 19.7726 13 18.5756C13 17.3786 12.398 16.3316 11.485 15.6986L12.845 13.5226C13.058 13.5636 13.276 13.5886 13.5 13.5886C15.08 13.5886 16.403 12.5296 16.837 11.0886H19.163C19.597 12.5296 20.92 13.5886 22.5 13.5886C22.724 13.5886 22.942 13.5626 23.155 13.5226L24.515 15.6986C23.602 16.3306 23 17.3836 23 18.5756C23 19.7676 23.606 20.8306 24.526 21.4616L23.155 23.6556C22.942 23.6146 22.724 23.5896 22.5 23.5896ZM21.4 15.4766L20.398 16.0536C20.007 15.6836 19.528 15.4116 19 15.2526V14.0896H17V15.2526C16.471 15.4116 15.993 15.6836 15.602 16.0536L14.6 15.4766L13.602 17.2096L14.602 17.7856C14.541 18.0446 14.5 18.3116 14.5 18.5886C14.5 18.8656 14.541 19.1326 14.602 19.3916L13.602 19.9686L14.6 21.7006L15.601 21.1236C15.992 21.4946 16.471 21.7656 17 21.9256V23.0886H19V21.9256C19.529 21.7666 20.008 21.4946 20.399 21.1236L21.4 21.7006L22.398 19.9686L21.398 19.3916C21.459 19.1326 21.5 18.8656 21.5 18.5886C21.5 18.3116 21.459 18.0446 21.398 17.7856L22.398 17.2096L21.4 15.4766ZM18 20.0896C17.173 20.0896 16.5 19.4166 16.5 18.5896C16.5 17.7626 17.173 17.0896 18 17.0896C18.827 17.0896 19.5 17.7626 19.5 18.5896C19.5 19.4166 18.827 20.0896 18 20.0896Z" fill="#E2893F"/>
</svg>
