<svg width="220" height="199" viewBox="0 0 220 199" fill="none" xmlns="http://www.w3.org/2000/svg">
<path d="M214.039 0.948934C211.249 0.948934 208.988 3.21037 208.988 6C208.988 8.78963 211.249 11.0511 214.039 11.0511C216.828 11.0511 219.09 8.78963 219.09 6C219.09 3.21037 216.828 0.948934 214.039 0.948934ZM213.092 193.521C213.092 194.044 213.516 194.468 214.039 194.468C214.562 194.468 214.986 194.044 214.986 193.521H213.092ZM213.092 6V193.521H214.986V6H213.092Z" fill="#D8663A"/>
<path d="M9.47075 192.575L0 188.054V198.99L9.47075 194.469V192.575ZM8.52367 194.469H214.039V192.575H8.52367V194.469Z" fill="#D8663A"/>
</svg>
