<svg width="24" height="25" viewBox="0 0 24 25" fill="none" xmlns="http://www.w3.org/2000/svg">
<g clip-path="url(#clip0_1_1040)">
<path d="M12 2.65126C15.204 2.65126 15.584 2.66326 16.849 2.72126C18.157 2.78126 19.504 3.07926 20.457 4.03226C21.419 4.99426 21.708 6.32826 21.768 7.64026C21.826 8.90526 21.838 9.28526 21.838 12.4893C21.838 15.6933 21.826 16.0733 21.768 17.3383C21.709 18.6393 21.404 19.9993 20.457 20.9463C19.495 21.9083 18.162 22.1973 16.849 22.2573C15.584 22.3153 15.204 22.3273 12 22.3273C8.796 22.3273 8.416 22.3153 7.151 22.2573C5.86 22.1983 4.482 21.8863 3.543 20.9463C2.586 19.9893 2.292 18.6423 2.232 17.3383C2.174 16.0733 2.162 15.6933 2.162 12.4893C2.162 9.28526 2.174 8.90526 2.232 7.64026C2.291 6.34426 2.599 4.97626 3.543 4.03226C4.503 3.07226 5.842 2.78126 7.151 2.72126C8.416 2.66326 8.796 2.65126 12 2.65126ZM12 0.489258C8.741 0.489258 8.332 0.503258 7.052 0.561258C5.197 0.646258 3.355 1.16226 2.014 2.50326C0.668 3.84926 0.157 5.68726 0.072 7.54126C0.014 8.82126 0 9.23026 0 12.4893C0 15.7483 0.014 16.1573 0.072 17.4373C0.157 19.2903 0.675 21.1373 2.014 22.4753C3.359 23.8203 5.2 24.3323 7.052 24.4173C8.332 24.4753 8.741 24.4893 12 24.4893C15.259 24.4893 15.668 24.4753 16.948 24.4173C18.802 24.3323 20.646 23.8153 21.986 22.4753C23.333 21.1283 23.843 19.2913 23.928 17.4373C23.986 16.1573 24 15.7483 24 12.4893C24 9.23026 23.986 8.82126 23.928 7.54126C23.843 5.68626 23.326 3.84326 21.986 2.50326C20.643 1.16026 18.797 0.645258 16.948 0.561258C15.668 0.503258 15.259 0.489258 12 0.489258Z" fill="white"/>
<path d="M12 6.32715C8.59701 6.32715 5.83801 9.08615 5.83801 12.4891C5.83801 15.8921 8.59701 18.6512 12 18.6512C15.403 18.6512 18.162 15.8921 18.162 12.4891C18.162 9.08615 15.403 6.32715 12 6.32715ZM12 16.4892C9.79101 16.4892 8.00001 14.6981 8.00001 12.4891C8.00001 10.2801 9.79101 8.48915 12 8.48915C14.209 8.48915 16 10.2801 16 12.4891C16 14.6981 14.209 16.4892 12 16.4892Z" fill="white"/>
<path d="M18.406 7.52307C19.2013 7.52307 19.846 6.87836 19.846 6.08307C19.846 5.28778 19.2013 4.64307 18.406 4.64307C17.6107 4.64307 16.966 5.28778 16.966 6.08307C16.966 6.87836 17.6107 7.52307 18.406 7.52307Z" fill="white"/>
</g>
<defs>
<clipPath id="clip0_1_1040">
<rect width="24" height="24" fill="white" transform="translate(0 0.489258)"/>
</clipPath>
</defs>
</svg>
