<svg width="24" height="25" viewBox="0 0 24 25" fill="none" xmlns="http://www.w3.org/2000/svg">
<g clip-path="url(#clip0_1_1045)">
<path d="M18.59 0.489258H5.41C2.422 0.489258 0 2.91126 0 5.89926V19.0793C0 22.0673 2.422 24.4893 5.41 24.4893H18.59C21.578 24.4893 24 22.0673 24 19.0793V5.89926C24 2.91126 21.577 0.489258 18.59 0.489258ZM18.284 15.3543C16.605 17.2863 12.852 19.6403 11.998 20.0003C11.144 20.3603 11.27 19.7713 11.305 19.5683C11.326 19.4483 11.419 18.8833 11.419 18.8833C11.446 18.6793 11.474 18.3623 11.393 18.1603C11.303 17.9373 10.949 17.8223 10.688 17.7653C6.843 17.2573 3.996 14.5693 3.996 11.3593C3.996 7.77926 7.586 4.86526 11.998 4.86526C16.41 4.86526 20 7.77826 20 11.3593C19.999 12.7913 19.444 14.0823 18.284 15.3543Z" fill="white"/>
<path d="M15.81 10.5014V11.0904H17.3379C17.4219 11.0904 17.4909 11.1594 17.4909 11.2434V11.8114C17.4909 11.8954 17.4229 11.9644 17.3379 11.9644H15.81V12.5534H17.3379C17.4219 12.5534 17.4909 12.6224 17.4909 12.7064V13.2744C17.4909 13.3584 17.4229 13.4264 17.3379 13.4264H15.09C15.006 13.4264 14.937 13.3584 14.937 13.2744V9.78142C14.937 9.69742 15.005 9.62842 15.09 9.62842H17.3379C17.4219 9.62842 17.4909 9.69642 17.4909 9.78142V10.3484C17.4909 10.4324 17.4229 10.5014 17.3379 10.5014H15.81Z" fill="white"/>
<path d="M9.17397 12.7064V13.2744C9.17397 13.3584 9.10597 13.4264 9.02097 13.4264H6.77297C6.68897 13.4264 6.62097 13.3584 6.62097 13.2744V9.78142C6.62097 9.69742 6.68897 9.62842 6.77297 9.62842H7.34097C7.42497 9.62842 7.49397 9.69642 7.49397 9.78142V12.5534H9.02197C9.10597 12.5534 9.17397 12.6224 9.17397 12.7064Z" fill="white"/>
<path d="M10.528 9.78142V13.2734C10.528 13.3574 10.46 13.4254 10.375 13.4254H9.80797C9.72397 13.4254 9.65497 13.3574 9.65497 13.2734V9.78142C9.65497 9.69742 9.72297 9.62842 9.80797 9.62842H10.375C10.459 9.62842 10.528 9.69742 10.528 9.78142Z" fill="white"/>
<path d="M14.391 9.78142V13.2734C14.391 13.3574 14.323 13.4254 14.238 13.4254H13.674C13.624 13.4254 13.575 13.4004 13.546 13.3594L11.946 11.1994V13.2734C11.946 13.3574 11.878 13.4254 11.793 13.4254H11.225C11.141 13.4254 11.072 13.3574 11.072 13.2734V9.78142C11.072 9.69742 11.14 9.62842 11.225 9.62842H11.789C11.842 9.62842 11.888 9.65642 11.919 9.69742L13.517 11.8554V9.78142C13.517 9.69742 13.585 9.62842 13.67 9.62842H14.238C14.323 9.62842 14.391 9.69742 14.391 9.78142Z" fill="white"/>
</g>
<defs>
<clipPath id="clip0_1_1045">
<rect width="24" height="24" fill="white" transform="translate(0 0.489258)"/>
</clipPath>
</defs>
</svg>
