<svg width="1160" height="61" viewBox="0 0 1160 61" fill="none" xmlns="http://www.w3.org/2000/svg">
<line x1="130" y1="2.51099" x2="1030" y2="2.51099" stroke="#4A9C99" stroke-width="4"/>
<path d="M132 38.8443C126.109 38.8443 121.333 43.6199 121.333 49.511C121.333 55.402 126.109 60.1777 132 60.1777C137.891 60.1777 142.667 55.402 142.667 49.511C142.667 43.6199 137.891 38.8443 132 38.8443ZM130 4.51099V49.511H134V4.51099H130Z" fill="#4A9C99"/>
<path d="M430.667 38.8443C424.776 38.8443 420 43.6199 420 49.511C420 55.402 424.776 60.1777 430.667 60.1777C436.558 60.1777 441.333 55.402 441.333 49.511C441.333 43.6199 436.558 38.8443 430.667 38.8443ZM428.667 4.51099V49.511H432.667V4.51099H428.667Z" fill="#4A9C99"/>
<path d="M729.333 38.8443C723.442 38.8443 718.667 43.6199 718.667 49.511C718.667 55.402 723.442 60.1777 729.333 60.1777C735.224 60.1777 740 55.402 740 49.511C740 43.6199 735.224 38.8443 729.333 38.8443ZM727.333 4.51099V49.511H731.333V4.51099H727.333Z" fill="#4A9C99"/>
<path d="M1028 38.8443C1022.11 38.8443 1017.33 43.6199 1017.33 49.511C1017.33 55.402 1022.11 60.1777 1028 60.1777C1033.89 60.1777 1038.67 55.402 1038.67 49.511C1038.67 43.6199 1033.89 38.8443 1028 38.8443ZM1026 4.51099V49.511H1030V4.51099H1026Z" fill="#4A9C99"/>
</svg>
