<svg width="24" height="25" viewBox="0 0 24 25" fill="none" xmlns="http://www.w3.org/2000/svg">
<g clip-path="url(#clip0_1_1038)">
<path d="M21.543 7.59311C21.557 7.80411 21.557 8.01611 21.557 8.22911C21.557 14.7361 16.603 22.2391 7.547 22.2391V22.2351C4.872 22.2391 2.252 21.4731 0 20.0281C0.389 20.0751 0.78 20.0981 1.172 20.0991C3.39 20.1011 5.544 19.3571 7.287 17.9871C5.18 17.9471 3.332 16.5731 2.687 14.5671C3.425 14.7091 4.185 14.6801 4.91 14.4831C2.612 14.0191 0.96 12.0001 0.96 9.65611C0.96 9.63511 0.96 9.61411 0.96 9.59411C1.645 9.97611 2.411 10.1871 3.195 10.2101C1.031 8.76511 0.363 5.88711 1.67 3.63711C4.17 6.71311 7.859 8.58311 11.818 8.78211C11.421 7.07211 11.964 5.28011 13.242 4.07711C15.225 2.21211 18.344 2.30811 20.209 4.29111C21.312 4.07411 22.369 3.66911 23.336 3.09611C22.968 4.23611 22.199 5.20411 21.171 5.82011C22.148 5.70311 23.101 5.44211 24 5.04411C23.339 6.03311 22.507 6.89611 21.543 7.59311Z" fill="white"/>
</g>
<defs>
<clipPath id="clip0_1_1038">
<rect width="24" height="24" fill="white" transform="translate(0 0.489258)"/>
</clipPath>
</defs>
</svg>
