<svg width="24" height="25" viewBox="0 0 24 25" fill="none" xmlns="http://www.w3.org/2000/svg">
<g clip-path="url(#clip0_1_1055)">
<path d="M23.498 6.67516C23.222 5.63616 22.409 4.81716 21.376 4.53916C19.505 4.03516 12 4.03516 12 4.03516C12 4.03516 4.495 4.03516 2.623 4.53916C1.591 4.81716 0.778 5.63516 0.502 6.67516C0 8.55916 0 12.4892 0 12.4892C0 12.4892 0 16.4192 0.502 18.3032C0.778 19.3422 1.591 20.1612 2.624 20.4392C4.495 20.9432 12 20.9432 12 20.9432C12 20.9432 19.505 20.9432 21.377 20.4392C22.409 20.1612 23.222 19.3432 23.499 18.3032C24 16.4192 24 12.4892 24 12.4892C24 12.4892 24 8.55916 23.498 6.67516ZM9.546 16.0582V8.92016L15.818 12.4892L9.546 16.0582Z" fill="white"/>
</g>
<defs>
<clipPath id="clip0_1_1055">
<rect width="24" height="24" fill="white" transform="translate(0 0.489258)"/>
</clipPath>
</defs>
</svg>
